<svg xmlns="http://www.w3.org/2000/svg" viewBox="0 0 64 64" fill="none">
  <defs>
    <linearGradient id="horseGrad" x1="0%" y1="0%" x2="100%" y2="100%">
      <stop offset="0%" style="stop-color:#8B4513"/>
      <stop offset="50%" style="stop-color:#A0522D"/>
      <stop offset="100%" style="stop-color:#654321"/>
    </linearGradient>
    <linearGradient id="decorGrad" x1="0%" y1="0%" x2="100%" y2="100%">
      <stop offset="0%" style="stop-color:#FFD700"/>
      <stop offset="100%" style="stop-color:#B8860B"/>
    </linearGradient>
  </defs>
  
  <!-- Horse body -->
  <path d="M15 35 Q12 30 15 25 Q18 20 25 20 L35 20 Q42 20 45 25 Q50 28 48 35 L48 45 L45 55 L42 55 L42 45 L40 45 L40 55 L37 55 L37 45 L27 45 L27 55 L24 55 L24 45 L22 45 L22 55 L19 55 L19 45 Z" 
        fill="url(#horseGrad)"/>
  
  <!-- Horse neck and head -->
  <path d="M15 25 Q10 20 8 15 Q7 10 12 8 Q18 6 22 10 Q25 14 22 20 L15 25" 
        fill="url(#horseGrad)"/>
  
  <!-- Mane -->
  <path d="M12 12 Q15 8 18 12 Q20 16 17 20" stroke="#333" stroke-width="2" fill="none"/>
  
  <!-- Eye -->
  <circle cx="13" cy="12" r="1.5" fill="#333"/>
  
  <!-- Ear -->
  <path d="M14 6 L16 2 L18 6" fill="url(#horseGrad)"/>
  
  <!-- Decorative cloth -->
  <path d="M25 20 L45 20 L48 30 L45 35 L20 35 L15 30 Z" fill="#8B1538" opacity="0.9"/>
  <path d="M25 22 L43 22" stroke="url(#decorGrad)" stroke-width="2"/>
  <path d="M24 26 L44 26" stroke="url(#decorGrad)" stroke-width="1"/>
  
  <!-- Gold tassels -->
  <circle cx="20" cy="35" r="2" fill="url(#decorGrad)"/>
  <circle cx="45" cy="35" r="2" fill="url(#decorGrad)"/>
  
  <!-- Bridle -->
  <path d="M8 15 Q5 15 5 18 L8 18" stroke="url(#decorGrad)" stroke-width="1" fill="none"/>
  
  <!-- Feather plume -->
  <path d="M16 2 Q12 -2 10 0 Q8 2 10 4 Q12 6 16 2" fill="#E8D5C4"/>
  <path d="M17 1 Q20 -3 22 -1 Q24 1 22 3 Q20 5 17 1" fill="#FFD700"/>
</svg>
